<mxfile host="app.diagrams.net" agent="Mozilla/5.0 (Windows NT 10.0; Win64; x64) AppleWebKit/537.36 (KHTML, like Gecko) Chrome/133.0.0.0 Safari/537.36" version="26.0.15">
  <diagram id="ldqV-zexVDzBLYdgFjp0" name="Page-1">
    <mxGraphModel dx="1182" dy="683" grid="1" gridSize="10" guides="1" tooltips="1" connect="1" arrows="1" fold="1" page="1" pageScale="1" pageWidth="1200" pageHeight="1920" background="none" math="0" shadow="0">
      <root>
        <mxCell id="0" />
        <mxCell id="1" parent="0" />
        <mxCell id="25" value="Remote Lab" style="whiteSpace=wrap;html=1;fillColor=none;dashed=1;dashPattern=8 8;labelPosition=center;verticalLabelPosition=top;align=center;verticalAlign=bottom;" parent="1" vertex="1">
          <mxGeometry x="546.1" y="40" width="520" height="168" as="geometry" />
        </mxCell>
        <mxCell id="11" value="Client" style="points=[[0.35,0,0],[0.98,0.51,0],[1,0.71,0],[0.67,1,0],[0,0.795,0],[0,0.65,0]];verticalLabelPosition=bottom;sketch=0;html=1;verticalAlign=top;aspect=fixed;align=center;pointerEvents=1;shape=mxgraph.cisco19.user;fillColor=light-dark(#005073,#0089B6);strokeColor=none;" parent="1" vertex="1">
          <mxGeometry x="40" y="85" width="50" height="50" as="geometry" />
        </mxCell>
        <mxCell id="12" value="Infrastructure" style="whiteSpace=wrap;html=1;aspect=fixed;fillColor=none;dashed=1;dashPattern=8 8;labelPosition=center;verticalLabelPosition=top;align=center;verticalAlign=bottom;" parent="1" vertex="1">
          <mxGeometry x="165" y="40" width="140" height="140" as="geometry" />
        </mxCell>
        <mxCell id="13" value="" style="endArrow=classic;html=1;exitX=0.988;exitY=0.236;exitDx=0;exitDy=0;exitPerimeter=0;" parent="1" source="11" edge="1">
          <mxGeometry width="50" height="50" relative="1" as="geometry">
            <mxPoint x="260" y="135" as="sourcePoint" />
            <mxPoint x="200" y="97" as="targetPoint" />
          </mxGeometry>
        </mxCell>
        <mxCell id="15" value="Remote Lab" style="verticalLabelPosition=bottom;html=1;verticalAlign=top;align=center;strokeColor=none;fillColor=#00BEF2;shape=mxgraph.azure.server_rack;" parent="1" vertex="1">
          <mxGeometry x="210" y="80" width="50" height="50" as="geometry" />
        </mxCell>
        <mxCell id="16" value="Client" style="points=[[0.35,0,0],[0.98,0.51,0],[1,0.71,0],[0.67,1,0],[0,0.795,0],[0,0.65,0]];verticalLabelPosition=bottom;sketch=0;html=1;verticalAlign=top;aspect=fixed;align=center;pointerEvents=1;shape=mxgraph.cisco19.user;fillColor=light-dark(#005073,#0089B6);strokeColor=none;" parent="1" vertex="1">
          <mxGeometry x="400" y="88.98000000000002" width="50" height="50" as="geometry" />
        </mxCell>
        <mxCell id="18" value="" style="endArrow=classic;html=1;exitX=1.033;exitY=0.211;exitDx=0;exitDy=0;exitPerimeter=0;" parent="1" source="16" edge="1">
          <mxGeometry width="50" height="50" relative="1" as="geometry">
            <mxPoint x="460" y="100" as="sourcePoint" />
            <mxPoint x="570" y="100" as="targetPoint" />
          </mxGeometry>
        </mxCell>
        <mxCell id="19" value="Back-End" style="verticalLabelPosition=bottom;html=1;verticalAlign=top;align=center;strokeColor=none;fillColor=#00BEF2;shape=mxgraph.azure.server_rack;" parent="1" vertex="1">
          <mxGeometry x="781.1" y="88.98000000000002" width="50" height="50" as="geometry" />
        </mxCell>
        <mxCell id="21" value="Database" style="html=1;verticalLabelPosition=bottom;align=center;labelBackgroundColor=#ffffff;verticalAlign=top;strokeWidth=2;strokeColor=#0089B6;shadow=0;dashed=0;shape=mxgraph.ios7.icons.data;fillColor=none;" parent="1" vertex="1">
          <mxGeometry x="990.1" y="85.23000000000002" width="47.42" height="57.5" as="geometry" />
        </mxCell>
        <mxCell id="23" value="&lt;font style=&quot;color: light-dark(rgb(5, 5, 5), transparent);&quot;&gt;Front-End&lt;/font&gt;" style="sketch=0;pointerEvents=1;shadow=0;dashed=0;html=1;strokeColor=none;fillColor=#0089B6;labelPosition=center;verticalLabelPosition=bottom;verticalAlign=top;outlineConnect=0;align=center;shape=mxgraph.office.concepts.web_page;fontColor=#ffffff;" parent="1" vertex="1">
          <mxGeometry x="578.6" y="86.98000000000002" width="50" height="54" as="geometry" />
        </mxCell>
        <mxCell id="QhMZok7SXWIq8EWoboSp-25" value="Back-End" style="whiteSpace=wrap;html=1;fillColor=none;dashed=1;dashPattern=8 8;labelPosition=center;verticalLabelPosition=top;align=center;verticalAlign=bottom;" vertex="1" parent="1">
          <mxGeometry x="110.05000000000001" y="250" width="223.9" height="480" as="geometry" />
        </mxCell>
        <mxCell id="QhMZok7SXWIq8EWoboSp-26" value="Authentication&lt;div&gt;Server&lt;/div&gt;" style="rounded=0;whiteSpace=wrap;html=1;fillColor=#1ba1e2;strokeColor=#006EAF;fontColor=#ffffff;" vertex="1" parent="1">
          <mxGeometry x="162" y="520" width="120" height="160" as="geometry" />
        </mxCell>
        <mxCell id="QhMZok7SXWIq8EWoboSp-27" value="Services" style="rounded=0;whiteSpace=wrap;html=1;fillColor=#1ba1e2;strokeColor=#006EAF;fontColor=#ffffff;" vertex="1" parent="1">
          <mxGeometry x="162" y="280" width="120" height="160" as="geometry" />
        </mxCell>
        <mxCell id="QhMZok7SXWIq8EWoboSp-28" value="" style="endArrow=classic;html=1;rounded=0;entryX=1.033;entryY=0.62;entryDx=0;entryDy=0;entryPerimeter=0;" edge="1" parent="1" target="16">
          <mxGeometry width="50" height="50" relative="1" as="geometry">
            <mxPoint x="570" y="120" as="sourcePoint" />
            <mxPoint x="459.99999999999994" y="120.00000000000006" as="targetPoint" />
          </mxGeometry>
        </mxCell>
        <mxCell id="QhMZok7SXWIq8EWoboSp-29" value="" style="endArrow=classic;html=1;" edge="1" parent="1">
          <mxGeometry width="50" height="50" relative="1" as="geometry">
            <mxPoint x="630" y="100" as="sourcePoint" />
            <mxPoint x="781.1" y="100" as="targetPoint" />
          </mxGeometry>
        </mxCell>
        <mxCell id="QhMZok7SXWIq8EWoboSp-30" value="" style="endArrow=classic;html=1;rounded=0;" edge="1" parent="1">
          <mxGeometry width="50" height="50" relative="1" as="geometry">
            <mxPoint x="780" y="120" as="sourcePoint" />
            <mxPoint x="630" y="120" as="targetPoint" />
          </mxGeometry>
        </mxCell>
        <mxCell id="QhMZok7SXWIq8EWoboSp-31" value="" style="endArrow=classic;html=1;" edge="1" parent="1">
          <mxGeometry width="50" height="50" relative="1" as="geometry">
            <mxPoint x="831.1" y="100" as="sourcePoint" />
            <mxPoint x="982.2" y="100" as="targetPoint" />
          </mxGeometry>
        </mxCell>
        <mxCell id="QhMZok7SXWIq8EWoboSp-32" value="" style="endArrow=classic;html=1;rounded=0;" edge="1" parent="1">
          <mxGeometry width="50" height="50" relative="1" as="geometry">
            <mxPoint x="981.1" y="120" as="sourcePoint" />
            <mxPoint x="831.1" y="120" as="targetPoint" />
          </mxGeometry>
        </mxCell>
        <mxCell id="QhMZok7SXWIq8EWoboSp-33" value="" style="endArrow=classic;html=1;rounded=0;entryX=1;entryY=0.71;entryDx=0;entryDy=0;entryPerimeter=0;" edge="1" parent="1" target="11">
          <mxGeometry width="50" height="50" relative="1" as="geometry">
            <mxPoint x="200" y="121" as="sourcePoint" />
            <mxPoint x="260" y="110" as="targetPoint" />
          </mxGeometry>
        </mxCell>
        <mxCell id="QhMZok7SXWIq8EWoboSp-35" value="" style="endArrow=classic;html=1;rounded=0;entryX=0.67;entryY=1.003;entryDx=0;entryDy=0;entryPerimeter=0;" edge="1" parent="1">
          <mxGeometry width="50" height="50" relative="1" as="geometry">
            <mxPoint x="232" y="519.52" as="sourcePoint" />
            <mxPoint x="232.39999999999998" y="440.00000000000045" as="targetPoint" />
          </mxGeometry>
        </mxCell>
        <mxCell id="QhMZok7SXWIq8EWoboSp-36" value="" style="endArrow=classic;html=1;rounded=0;exitX=0.414;exitY=1.002;exitDx=0;exitDy=0;exitPerimeter=0;" edge="1" parent="1" source="QhMZok7SXWIq8EWoboSp-27">
          <mxGeometry width="50" height="50" relative="1" as="geometry">
            <mxPoint x="212" y="443" as="sourcePoint" />
            <mxPoint x="212" y="520" as="targetPoint" />
          </mxGeometry>
        </mxCell>
        <mxCell id="QhMZok7SXWIq8EWoboSp-37" value="" style="endArrow=classic;html=1;exitX=1.033;exitY=0.211;exitDx=0;exitDy=0;exitPerimeter=0;" edge="1" parent="1">
          <mxGeometry width="50" height="50" relative="1" as="geometry">
            <mxPoint x="44" y="349.71000000000004" as="sourcePoint" />
            <mxPoint x="162" y="349.71000000000004" as="targetPoint" />
          </mxGeometry>
        </mxCell>
        <mxCell id="QhMZok7SXWIq8EWoboSp-38" value="" style="endArrow=classic;html=1;rounded=0;entryX=1.033;entryY=0.62;entryDx=0;entryDy=0;entryPerimeter=0;" edge="1" parent="1">
          <mxGeometry width="50" height="50" relative="1" as="geometry">
            <mxPoint x="162" y="369.71000000000004" as="sourcePoint" />
            <mxPoint x="44" y="369.71000000000004" as="targetPoint" />
          </mxGeometry>
        </mxCell>
        <mxCell id="QhMZok7SXWIq8EWoboSp-39" value="" style="endArrow=classic;html=1;exitX=1.033;exitY=0.211;exitDx=0;exitDy=0;exitPerimeter=0;" edge="1" parent="1">
          <mxGeometry width="50" height="50" relative="1" as="geometry">
            <mxPoint x="282" y="349.58000000000004" as="sourcePoint" />
            <mxPoint x="400" y="349.58000000000004" as="targetPoint" />
          </mxGeometry>
        </mxCell>
        <mxCell id="QhMZok7SXWIq8EWoboSp-40" value="" style="endArrow=classic;html=1;rounded=0;entryX=1.033;entryY=0.62;entryDx=0;entryDy=0;entryPerimeter=0;" edge="1" parent="1">
          <mxGeometry width="50" height="50" relative="1" as="geometry">
            <mxPoint x="400" y="369.58000000000004" as="sourcePoint" />
            <mxPoint x="282" y="369.58000000000004" as="targetPoint" />
          </mxGeometry>
        </mxCell>
        <mxCell id="QhMZok7SXWIq8EWoboSp-41" value="Http" style="rounded=0;whiteSpace=wrap;html=1;fillColor=#1ba1e2;fontColor=#ffffff;strokeColor=#006EAF;" vertex="1" parent="1">
          <mxGeometry x="546.1" y="310" width="120" height="60" as="geometry" />
        </mxCell>
        <mxCell id="QhMZok7SXWIq8EWoboSp-42" value="Services" style="rounded=0;whiteSpace=wrap;html=1;fillColor=#1ba1e2;fontColor=#ffffff;strokeColor=#006EAF;" vertex="1" parent="1">
          <mxGeometry x="746.1" y="310" width="120" height="60" as="geometry" />
        </mxCell>
        <mxCell id="QhMZok7SXWIq8EWoboSp-43" value="Respository" style="rounded=0;whiteSpace=wrap;html=1;fillColor=#1ba1e2;fontColor=#ffffff;strokeColor=#006EAF;" vertex="1" parent="1">
          <mxGeometry x="946.1" y="310" width="120" height="60" as="geometry" />
        </mxCell>
        <mxCell id="QhMZok7SXWIq8EWoboSp-44" value="" style="endArrow=classic;html=1;exitX=0.999;exitY=0.325;exitDx=0;exitDy=0;exitPerimeter=0;entryX=-0.008;entryY=0.334;entryDx=0;entryDy=0;entryPerimeter=0;" edge="1" parent="1" source="QhMZok7SXWIq8EWoboSp-41" target="QhMZok7SXWIq8EWoboSp-42">
          <mxGeometry width="50" height="50" relative="1" as="geometry">
            <mxPoint x="670" y="331" as="sourcePoint" />
            <mxPoint x="767" y="330.71000000000004" as="targetPoint" />
          </mxGeometry>
        </mxCell>
        <mxCell id="QhMZok7SXWIq8EWoboSp-45" value="" style="endArrow=classic;html=1;rounded=0;entryX=1.001;entryY=0.672;entryDx=0;entryDy=0;entryPerimeter=0;exitX=-0.008;exitY=0.668;exitDx=0;exitDy=0;exitPerimeter=0;" edge="1" parent="1" source="QhMZok7SXWIq8EWoboSp-42" target="QhMZok7SXWIq8EWoboSp-41">
          <mxGeometry width="50" height="50" relative="1" as="geometry">
            <mxPoint x="740" y="350" as="sourcePoint" />
            <mxPoint x="670" y="351" as="targetPoint" />
          </mxGeometry>
        </mxCell>
        <mxCell id="QhMZok7SXWIq8EWoboSp-46" value="" style="endArrow=classic;html=1;exitX=0.999;exitY=0.325;exitDx=0;exitDy=0;exitPerimeter=0;entryX=-0.008;entryY=0.334;entryDx=0;entryDy=0;entryPerimeter=0;" edge="1" parent="1">
          <mxGeometry width="50" height="50" relative="1" as="geometry">
            <mxPoint x="867.1" y="329.8" as="sourcePoint" />
            <mxPoint x="946.1" y="329.8" as="targetPoint" />
          </mxGeometry>
        </mxCell>
        <mxCell id="QhMZok7SXWIq8EWoboSp-47" value="" style="endArrow=classic;html=1;rounded=0;entryX=1.001;entryY=0.672;entryDx=0;entryDy=0;entryPerimeter=0;exitX=-0.008;exitY=0.668;exitDx=0;exitDy=0;exitPerimeter=0;" edge="1" parent="1">
          <mxGeometry width="50" height="50" relative="1" as="geometry">
            <mxPoint x="946.1" y="349.8" as="sourcePoint" />
            <mxPoint x="867.1" y="349.8" as="targetPoint" />
          </mxGeometry>
        </mxCell>
        <mxCell id="QhMZok7SXWIq8EWoboSp-48" value="" style="endArrow=classic;html=1;exitX=0.999;exitY=0.325;exitDx=0;exitDy=0;exitPerimeter=0;entryX=-0.008;entryY=0.334;entryDx=0;entryDy=0;entryPerimeter=0;" edge="1" parent="1">
          <mxGeometry width="50" height="50" relative="1" as="geometry">
            <mxPoint x="1066.1" y="329.8" as="sourcePoint" />
            <mxPoint x="1145.1" y="329.8" as="targetPoint" />
          </mxGeometry>
        </mxCell>
        <mxCell id="QhMZok7SXWIq8EWoboSp-49" value="" style="endArrow=classic;html=1;rounded=0;entryX=1.001;entryY=0.672;entryDx=0;entryDy=0;entryPerimeter=0;exitX=-0.008;exitY=0.668;exitDx=0;exitDy=0;exitPerimeter=0;" edge="1" parent="1">
          <mxGeometry width="50" height="50" relative="1" as="geometry">
            <mxPoint x="1145.1" y="349.8" as="sourcePoint" />
            <mxPoint x="1066.1" y="349.8" as="targetPoint" />
          </mxGeometry>
        </mxCell>
        <mxCell id="QhMZok7SXWIq8EWoboSp-50" value="" style="endArrow=classic;html=1;exitX=0.999;exitY=0.325;exitDx=0;exitDy=0;exitPerimeter=0;entryX=-0.008;entryY=0.334;entryDx=0;entryDy=0;entryPerimeter=0;" edge="1" parent="1">
          <mxGeometry width="50" height="50" relative="1" as="geometry">
            <mxPoint x="467.1" y="329.71" as="sourcePoint" />
            <mxPoint x="546.1" y="329.71" as="targetPoint" />
          </mxGeometry>
        </mxCell>
        <mxCell id="QhMZok7SXWIq8EWoboSp-51" value="" style="endArrow=classic;html=1;rounded=0;entryX=1.001;entryY=0.672;entryDx=0;entryDy=0;entryPerimeter=0;exitX=-0.008;exitY=0.668;exitDx=0;exitDy=0;exitPerimeter=0;" edge="1" parent="1">
          <mxGeometry width="50" height="50" relative="1" as="geometry">
            <mxPoint x="546.1" y="349.71" as="sourcePoint" />
            <mxPoint x="467.1" y="349.71" as="targetPoint" />
          </mxGeometry>
        </mxCell>
        <mxCell id="QhMZok7SXWIq8EWoboSp-52" value="Domain" style="rounded=0;whiteSpace=wrap;html=1;fillColor=#1ba1e2;fontColor=#ffffff;strokeColor=#006EAF;" vertex="1" parent="1">
          <mxGeometry x="746.1" y="440" width="120" height="60" as="geometry" />
        </mxCell>
        <mxCell id="QhMZok7SXWIq8EWoboSp-53" value="" style="endArrow=classic;html=1;rounded=0;exitX=0.5;exitY=1;exitDx=0;exitDy=0;entryX=0;entryY=0;entryDx=0;entryDy=0;" edge="1" parent="1" source="QhMZok7SXWIq8EWoboSp-41" target="QhMZok7SXWIq8EWoboSp-52">
          <mxGeometry width="50" height="50" relative="1" as="geometry">
            <mxPoint x="630" y="430" as="sourcePoint" />
            <mxPoint x="680" y="380" as="targetPoint" />
          </mxGeometry>
        </mxCell>
        <mxCell id="QhMZok7SXWIq8EWoboSp-54" value="" style="endArrow=classic;html=1;rounded=0;entryX=0.5;entryY=0;entryDx=0;entryDy=0;exitX=0.5;exitY=1;exitDx=0;exitDy=0;" edge="1" parent="1" source="QhMZok7SXWIq8EWoboSp-42" target="QhMZok7SXWIq8EWoboSp-52">
          <mxGeometry width="50" height="50" relative="1" as="geometry">
            <mxPoint x="780" y="440" as="sourcePoint" />
            <mxPoint x="830" y="390" as="targetPoint" />
          </mxGeometry>
        </mxCell>
        <mxCell id="QhMZok7SXWIq8EWoboSp-55" value="" style="endArrow=classic;html=1;rounded=0;exitX=0.5;exitY=1;exitDx=0;exitDy=0;entryX=1;entryY=0;entryDx=0;entryDy=0;" edge="1" parent="1" source="QhMZok7SXWIq8EWoboSp-43" target="QhMZok7SXWIq8EWoboSp-52">
          <mxGeometry width="50" height="50" relative="1" as="geometry">
            <mxPoint x="830" y="370" as="sourcePoint" />
            <mxPoint x="970" y="440" as="targetPoint" />
          </mxGeometry>
        </mxCell>
        <mxCell id="QhMZok7SXWIq8EWoboSp-56" value="Back-End Services" style="whiteSpace=wrap;html=1;fillColor=none;dashed=1;dashPattern=8 8;labelPosition=center;verticalLabelPosition=top;align=center;verticalAlign=bottom;" vertex="1" parent="1">
          <mxGeometry x="510" y="272" width="600" height="258" as="geometry" />
        </mxCell>
      </root>
    </mxGraphModel>
  </diagram>
</mxfile>
